# xmcd
#
# Track frame offsets:
#	150
#	44570
#	74485
#	118090
#	146025
#
# Disc length: 2351 seconds
#
# Revision: 2
# Processed by: cddbd v1.5.1PL2 Copyright (c) Steve Scherf et al.
# Submitted via: EasyCDDAExtractor 8.0.2.1
#
DISCID=4f092d05
DTITLE=Deep Purple - Lugnets Skidstadion Falun 26-06-96 Disc 2
DYEAR=1996
DGENRE=Hard Rock
TTITLE0=Smoke On The Water
TTITLE1=When A Blind Man Cries
TTITLE2=Speed King
TTITLE3=Perfect Strangers
TTITLE4=Highway Star
EXTD=
EXTT0=
EXTT1=
EXTT2=
EXTT3=
EXTT4=
PLAYORDER=
